<svg width="7" height="13" viewBox="0 0 7 13" fill="none" xmlns="http://www.w3.org/2000/svg">
<path d="M0.996999 12.25C0.799593 12.2492 0.606836 12.1885 0.442962 12.0758C0.279087 11.9631 0.151409 11.8032 0.0759763 11.6164C0.000544076 11.4295 -0.0192757 11.224 0.0190098 11.0256C0.0572953 10.8273 0.151977 10.6449 0.291152 10.5015L4.58631 6.09703L0.291152 1.69253C0.127129 1.49636 0.0414191 1.24401 0.0511519 0.985914C0.0608848 0.727822 0.165343 0.482996 0.343652 0.300361C0.52196 0.117726 0.760986 0.0107338 1.01296 0.000764795C1.26494 -0.00920419 1.51132 0.0785844 1.70285 0.246587L6.70886 5.37406C6.89533 5.5662 7 5.82611 7 6.09703C7 6.36795 6.89533 6.62787 6.70886 6.82001L1.70285 11.9475C1.51595 12.1401 1.26211 12.2489 0.996999 12.25Z" fill="black"/>
</svg>
