<svg width="27" height="15" viewBox="0 0 27 15" fill="none" xmlns="http://www.w3.org/2000/svg">
<path d="M0.300074 2.13643C0.301903 1.71341 0.432512 1.30036 0.675478 0.949204C0.918444 0.598044 1.26292 0.324447 1.66561 0.162806C2.0683 0.00116587 2.51123 -0.0413051 2.93872 0.0407353C3.3662 0.122776 3.75916 0.325665 4.0682 0.623897L13.5603 9.82781L23.0525 0.623897C23.4753 0.272418 24.0191 0.0887552 24.5753 0.109611C25.1315 0.130467 25.6592 0.354307 26.0528 0.736397C26.4464 1.11849 26.6769 1.63068 26.6984 2.17064C26.7199 2.71059 26.5307 3.23853 26.1687 3.64896L15.1184 14.3761C14.7043 14.7757 14.1442 15 13.5603 15C12.9765 15 12.4163 14.7757 12.0023 14.3761L0.952038 3.64896C0.537005 3.24846 0.302541 2.70451 0.300074 2.13643Z" fill="#343951"/>
</svg>
