<svg width="9" height="12" viewBox="0 0 9 12" fill="none" xmlns="http://www.w3.org/2000/svg">
<path d="M2.672 2.74472C2.677 2.7091 2.682 2.67447 2.688 2.64578C2.694 2.61708 2.693 2.60917 2.696 2.59037C2.85828 1.66012 3.35127 0.817904 4.086 0.215698C2.78741 0.829513 1.41401 1.2745 0 1.53958L0 4.73846C3.9695e-07 5.88302 0.259457 7.01302 0.759265 8.04524C1.25907 9.07746 1.98651 9.98561 2.888 10.7028L4.519 12L5.335 11.3509C3.986 9.70943 2.1 6.54518 2.672 2.74472Z" fill="#343951"/>
<path d="M4.60002 0C4.62202 0.0168206 4.82902 0.382916 4.94402 0.578826C5.35931 1.2838 5.54452 2.09844 5.47436 2.91146C5.4042 3.72449 5.08209 4.49626 4.55202 5.12137C3.73602 6.16524 3.55902 7.28133 3.81202 8.07487C4.24593 9.17226 4.84136 10.2002 5.57902 11.1253L6.11402 10.6999C7.01476 9.98276 7.74157 9.075 8.24101 8.04334C8.74045 7.01168 8.99981 5.88236 9.00002 4.73846V1.53958C7.46656 1.23697 5.98484 0.71851 4.60002 0V0Z" fill="#343951"/>
<path d="M5.30003 11.3786L5.90003 10.8839L6.00003 1.58311L4.60003 0L3.90003 0.296834L2.00003 2.27573L2.50003 8.90501L5.30003 11.3786Z" fill="#343951"/>
</svg>
