<svg width="25" height="44" viewBox="0 0 25 44" fill="none" xmlns="http://www.w3.org/2000/svg">
<path d="M3.56071 44C2.85569 43.997 2.16727 43.7793 1.58201 43.3743C0.99674 42.9694 0.540745 42.3953 0.271344 41.7241C0.00194313 41.053 -0.0688418 40.3147 0.0678921 39.6023C0.204626 38.8898 0.542776 38.2349 1.03983 37.7198L16.3797 21.8995L1.03983 6.07931C0.454031 5.37467 0.147925 4.46827 0.182685 3.54124C0.217446 2.61422 0.590511 1.73484 1.22733 1.07885C1.86414 0.422853 2.71781 0.038554 3.61773 0.00274702C4.51766 -0.03306 5.39755 0.282262 6.0816 0.885702L23.9602 19.3027C24.6262 19.9929 25 20.9264 25 21.8995C25 22.8727 24.6262 23.8062 23.9602 24.4963L6.0816 42.9134C5.4141 43.6051 4.50752 43.9959 3.56071 44Z" fill="#03A9F4"/>
</svg>
