<svg width="26" height="26" viewBox="0 0 26 26" fill="none" xmlns="http://www.w3.org/2000/svg">
<g clip-path="url(#clip0)">
<path d="M19.3348 10.7042C19.3348 10.7042 20.3862 9.90465 19.5858 9.10511C18.7854 8.30558 18.0073 9.33735 18.0073 9.33735L9.96139 17.385C9.96139 17.385 8.07694 19.817 6.64412 18.3465C5.213 16.8743 7.60476 15.0284 7.60476 15.0284L18.1547 4.47927C18.1547 4.47927 20.6168 1.76701 22.9314 4.07993C25.2426 6.39371 22.5226 8.86088 22.5226 8.86088L10.6684 20.7151C10.6684 20.7151 6.87549 25.0967 3.36455 21.5849C-0.146391 18.0731 4.27806 14.3231 4.27806 14.3231L13.2778 5.3208C13.2778 5.3208 14.2856 4.47927 13.5306 3.72173C12.7722 2.96504 11.9324 3.97453 11.9324 3.97453L1.60522 14.3017C1.60522 14.3017 -2.29306 18.577 2.06027 22.9295C6.4136 27.2845 10.6915 23.3863 10.6915 23.3863L24.8853 9.19081C24.8853 9.19081 27.7252 6.05864 24.3394 2.6711C20.9535 -0.716441 17.8205 2.12351 17.8205 2.12351L5.6072 14.3351C5.6072 14.3351 2.47932 16.8794 5.31755 19.7159C8.15578 22.5559 10.6538 19.3817 10.6538 19.3817L19.3348 10.7042Z" fill="black"/>
</g>
<defs>
<clipPath id="clip0">
<rect width="26" height="26" fill="white"/>
</clipPath>
</defs>
</svg>
