<svg width="102" height="116" viewBox="0 0 102 116" fill="none" xmlns="http://www.w3.org/2000/svg">
<path d="M60.246 39.2903C60.246 38.2575 61.0842 37.4194 62.1169 37.4194C63.1497 37.4194 63.9879 38.2575 63.9879 39.2903C63.9879 40.3231 63.1497 41.1613 62.1169 41.1613C61.0842 41.1613 60.246 40.3231 60.246 39.2903ZM39.6653 37.4194C38.6325 37.4194 37.7944 38.2575 37.7944 39.2903C37.7944 40.3231 38.6325 41.1613 39.6653 41.1613C40.6981 41.1613 41.5363 40.3231 41.5363 39.2903C41.5363 38.2575 40.6981 37.4194 39.6653 37.4194ZM101.407 114.129V116H82.6976H19.0847H0.375V114.129C0.375 102.001 7.62874 91.1966 18.8545 86.6034L38.0488 78.7509C40.1667 77.8846 41.5363 75.8453 41.5363 73.5552V72.2119C38.1349 69.8619 35.2031 66.9507 32.8625 63.6129H24.6976C19.5393 63.6129 15.3427 59.4163 15.3427 54.2581V48.6452V46.7742V41.1613C15.3427 38.7253 16.9125 36.6672 19.0847 35.8926V31.8065C19.0847 14.268 33.3527 0 50.8911 0C68.4296 0 82.6976 14.268 82.6976 31.8065V35.8926C84.8698 36.6672 86.4395 38.7253 86.4395 41.1613V48.6452C86.4395 51.7397 83.9212 54.2581 80.8266 54.2581H73.5654C71.2416 61.5436 66.5511 67.8563 60.246 72.2119V73.5552C60.246 75.8453 61.6155 77.8828 63.7334 78.749L82.9277 86.6015C94.1535 91.1966 101.407 102.001 101.407 114.129V114.129ZM34.0524 99.1613C34.0524 100.194 34.8925 101.032 35.9234 101.032H40.2266L34.1722 84.3806L34.0524 84.4293V99.1613ZM42.4138 101.032H59.3704L50.8911 90.8579L42.4138 101.032ZM67.612 84.3806L61.5556 101.032H65.8589C66.8898 101.032 67.7298 100.194 67.7298 99.1613V84.4293L67.612 84.3806ZM62.3171 82.2141C62.1749 82.1561 62.0477 82.0756 61.9093 82.0101L53.5891 88.2498L59.6005 95.4605L64.1451 82.9606L62.3171 82.2141ZM82.6976 41.1613C82.6976 40.1304 81.8575 39.2903 80.8266 39.2903H75.2137V43.689C75.2137 46.0183 74.9574 48.2972 74.514 50.5161H80.8266C81.8575 50.5161 82.6976 49.6761 82.6976 48.6452V41.1613ZM22.8266 31.8065V35.5484H26.5685V25.4695L29.0307 26.289C29.1411 26.3264 40.1162 29.9355 50.8911 29.9355C61.666 29.9355 72.6411 26.3264 72.7515 26.289L75.2137 25.4714V35.5484H78.9556V31.8065C78.9556 16.3317 66.3659 3.74194 50.8911 3.74194C35.4164 3.74194 22.8266 16.3317 22.8266 31.8065ZM19.0847 46.7742V48.6452C19.0847 49.6761 19.9247 50.5161 20.9556 50.5161H27.2683C26.8249 48.2972 26.5685 46.0183 26.5685 43.689V39.2903H20.9556C19.9247 39.2903 19.0847 40.1304 19.0847 41.1613V46.7742ZM30.578 59.871C29.6332 58.0805 28.838 56.2057 28.2169 54.2581H20.9556C20.2971 54.2581 19.6722 54.1234 19.0847 53.9138V54.2581C19.0847 57.3526 21.603 59.871 24.6976 59.871H30.578ZM50.8911 72.8592C63.2283 68.4718 71.4718 56.8288 71.4718 43.689V30.581C67.4866 31.6979 59.2487 33.6774 50.8911 33.6774C42.5335 33.6774 34.2956 31.6979 30.3105 30.581V43.689C30.3105 49.5545 31.9625 55.115 34.8775 59.871H41.8824C42.657 57.6988 44.7151 56.129 47.1511 56.129H54.6349C57.7295 56.129 60.2478 58.6474 60.2478 61.7419C60.2478 64.8365 57.7295 67.3548 54.6349 67.3548H47.1511C44.7151 67.3548 42.657 65.7851 41.8824 63.6129H37.5717C41.0349 67.7328 45.5795 70.9714 50.8911 72.8592ZM47.1492 63.6129H54.6331C55.664 63.6129 56.504 62.7747 56.504 61.7419C56.504 60.7092 55.664 59.871 54.6331 59.871H47.1492C46.1183 59.871 45.2782 60.7092 45.2782 61.7419C45.2782 62.7747 46.1183 63.6129 47.1492 63.6129ZM45.2109 74.457C45.0238 76.4197 44.2417 78.2308 42.9919 79.6733L50.8911 85.5968L58.7904 79.6733C57.5405 78.2308 56.7585 76.4197 56.5714 74.457C54.9549 75.299 53.256 76.023 51.4842 76.6124L50.8911 76.8107L50.2999 76.6143C48.5281 76.023 46.8274 75.299 45.2109 74.457V74.457ZM37.6372 82.9625L42.1818 95.4624L48.1932 88.2517L39.873 82.012C39.7345 82.0756 39.6073 82.1579 39.4651 82.2159L37.6372 82.9625ZM19.0847 112.258V90.6016C10.5175 94.6092 4.84848 102.856 4.18242 112.258H19.0847ZM78.9556 112.258V89.0225L71.4718 85.9616V99.1613C71.4718 102.256 68.9535 104.774 65.8589 104.774H35.9234C32.8288 104.774 30.3105 102.256 30.3105 99.1613V85.9597L22.8266 89.0206V112.258H78.9556ZM97.5998 112.258C96.9338 102.856 91.2647 94.6092 82.6976 90.6016V112.258H97.5998ZM73.0078 21.6714C72.3586 20.2532 71.5653 18.8893 70.6486 17.617L67.6101 19.8023C68.3866 20.88 69.0564 22.0325 69.6045 23.2318L73.0078 21.6714ZM66.9796 13.5645C62.536 9.64297 56.8221 7.48387 50.8911 7.48387V11.2258C55.9109 11.2258 60.7455 13.0537 64.5024 16.371L66.9796 13.5645Z" fill="url(#paint0_linear)"/>
<defs>
<linearGradient id="paint0_linear" x1="50.8911" y1="37.0452" x2="50.8911" y2="167.763" gradientUnits="userSpaceOnUse">
<stop stop-color="#343951"/>
<stop offset="1" stop-color="#03A9F4"/>
</linearGradient>
</defs>
</svg>
