<svg width="116" height="116" viewBox="0 0 116 116" fill="none" xmlns="http://www.w3.org/2000/svg">
<path d="M110.112 95.8342H107.983V93.7046C107.983 90.4581 105.342 87.8169 102.095 87.8169H82.0518C78.8053 87.8169 76.1641 90.4581 76.1641 93.7046V95.8342H74.0345C70.788 95.8342 68.1469 98.4754 68.1469 101.722V105.73C68.1469 106.768 68.9882 107.61 70.0259 107.61H114.121C115.159 107.61 116 106.768 116 105.73V101.722C116 98.4754 113.359 95.8342 110.112 95.8342ZM79.9222 93.7046C79.9222 92.5303 80.8775 91.575 82.0518 91.575H102.095C103.269 91.575 104.225 92.5303 104.225 93.7046V95.8342H79.9222V93.7046ZM112.242 103.851H71.9049V101.722C71.9049 100.548 72.8603 99.5923 74.0345 99.5923H110.112C111.287 99.5923 112.242 100.548 112.242 101.722V103.851Z" fill="url(#paint0_linear)"/>
<path d="M71.9052 55.3791L71.8165 55.4678C69.5208 57.7635 69.5208 61.4986 71.8165 63.794C72.9284 64.9059 74.4071 65.5185 75.9798 65.5185C77.5524 65.5185 79.0308 64.9059 80.143 63.794L91.4812 52.4561C92.5931 51.3442 93.2056 49.8655 93.2056 48.2929C93.2056 46.7202 92.5931 45.2415 91.4812 44.1296C90.3693 43.0177 88.8906 42.4052 87.3179 42.4052C85.7453 42.4052 84.2666 43.0177 83.1547 44.1296L83.0663 44.2183L78.7079 39.8597C79.0829 38.5466 78.756 37.0734 77.7238 36.0412L65.5553 23.8727C64.5231 22.8405 63.0499 22.5136 61.7368 22.8889L57.3782 18.5305L57.4666 18.4418C58.5785 17.3299 59.1911 15.8512 59.1911 14.2786C59.1911 12.7059 58.5785 11.2275 57.4666 10.1153C56.3547 9.00344 54.876 8.39087 53.3034 8.39087C51.7307 8.39087 50.2521 9.00344 49.1402 10.1153L37.8022 21.4535C36.6903 22.5654 36.0778 24.0441 36.0778 25.6167C36.0778 27.1894 36.6903 28.6681 37.8022 29.78C38.9499 30.9279 40.4577 31.5017 41.9654 31.5017C43.4732 31.5017 44.9809 30.9277 46.1287 29.78L46.2174 29.6913L50.5747 34.0487C50.476 34.3937 50.4227 34.7537 50.4227 35.1225C50.4227 36.16 50.8265 37.1351 51.5601 37.8684L52.0637 38.372L48.1681 42.2679C46.9249 43.5111 46.3609 45.1759 46.4641 46.8062L1.72447 91.5456C0.61257 92.6575 0 94.1359 0 95.7088C0 97.2817 0.61257 98.7601 1.72447 99.872C2.83636 100.984 4.31505 101.596 5.88769 101.596C7.46033 101.596 8.93902 100.984 10.0509 99.872L54.7903 55.1326C54.9154 55.1404 55.0404 55.1504 55.1654 55.1504C56.6729 55.1504 58.1809 54.5764 59.3286 53.4287L63.2245 49.533L63.7281 50.0366C64.4617 50.7702 65.4368 51.1743 66.474 51.1743C66.8428 51.1743 67.2028 51.121 67.5478 51.0222L71.9052 55.3791ZM87.3179 46.1643C87.8634 46.1643 88.4088 46.372 88.8239 46.7871C89.226 47.1892 89.4478 47.7239 89.4478 48.2929C89.4478 48.8618 89.2263 49.3965 88.8239 49.7989L77.4857 61.1368C76.6552 61.9673 75.3043 61.9671 74.474 61.1368C73.6437 60.3065 73.6437 58.9553 74.474 58.1251L85.8122 46.7869C86.2273 46.3717 86.7725 46.1643 87.3179 46.1643ZM74.5627 52.7219L70.5488 48.708L76.3951 42.8617L80.409 46.8756L74.5627 52.7219ZM40.4597 27.1225C39.6294 26.2922 39.6294 24.941 40.4597 24.1107L51.7976 12.7726C52.1998 12.3704 52.7347 12.1487 53.3036 12.1487C53.8726 12.1487 54.4073 12.3702 54.8094 12.7726C55.6397 13.6029 55.6397 14.954 54.8094 15.7843L43.4712 27.1225C42.6409 27.9525 41.29 27.9525 40.4597 27.1225ZM54.7209 21.1874L58.7348 25.2013L52.8885 31.0477L48.8746 27.0338L54.7209 21.1874ZM7.39343 97.2145C6.99132 97.6167 6.45667 97.8384 5.88769 97.8384C5.31871 97.8384 4.78406 97.6169 4.38194 97.2145C3.97983 96.8124 3.7581 96.2778 3.7581 95.7088C3.7581 95.1398 3.97958 94.6052 4.38194 94.2031L48.0836 50.5011C48.1127 50.5314 48.1377 50.5643 48.1678 50.5943L51.0022 53.4287C51.032 53.4585 51.0648 53.4836 51.0954 53.5129L7.39343 97.2145ZM56.6714 50.7712C55.8411 51.6015 54.4902 51.6015 53.6596 50.7712L50.8253 47.9368C49.995 47.1066 49.995 45.7554 50.8253 44.9251L54.7209 41.0292L60.5673 46.8756L56.6714 50.7712ZM54.2171 35.2109C54.2081 35.2019 54.1805 35.1743 54.1805 35.1225C54.1805 35.0706 54.2081 35.0428 54.2171 35.0338L62.7207 26.5302C62.7452 26.5059 62.7773 26.4936 62.8094 26.4936C62.8414 26.4936 62.8735 26.5059 62.8981 26.5302L75.0663 38.6984C75.1151 38.7473 75.1151 38.827 75.0663 38.8758L66.5627 47.3794C66.5537 47.3884 66.5259 47.416 66.474 47.416C66.4222 47.416 66.3946 47.3884 66.3853 47.3794L54.2171 35.2109Z" fill="url(#paint1_linear)"/>
<defs>
<linearGradient id="paint0_linear" x1="92.0734" y1="94.1378" x2="92.0734" y2="116.442" gradientUnits="userSpaceOnUse">
<stop stop-color="#343951"/>
<stop offset="1" stop-color="#03A9F4"/>
</linearGradient>
<linearGradient id="paint1_linear" x1="46.6028" y1="38.1565" x2="46.6028" y2="143.188" gradientUnits="userSpaceOnUse">
<stop stop-color="#343951"/>
<stop offset="1" stop-color="#03A9F4"/>
</linearGradient>
</defs>
</svg>
