<svg width="70" height="81" viewBox="0 0 70 81" fill="none" xmlns="http://www.w3.org/2000/svg">
<path d="M41.4815 27.2222C41.4815 26.5067 42.0622 25.9259 42.7778 25.9259C43.4933 25.9259 44.0741 26.5067 44.0741 27.2222C44.0741 27.9378 43.4933 28.5185 42.7778 28.5185C42.0622 28.5185 41.4815 27.9378 41.4815 27.2222ZM27.2222 25.9259C26.5067 25.9259 25.9259 26.5067 25.9259 27.2222C25.9259 27.9378 26.5067 28.5185 27.2222 28.5185C27.9378 28.5185 28.5185 27.9378 28.5185 27.2222C28.5185 26.5067 27.9378 25.9259 27.2222 25.9259ZM70 79.0741V80.3704H57.037H12.963H0V79.0741C0 70.6715 5.02574 63.1854 12.8035 60.003L26.1022 54.5624C27.5696 53.9622 28.5185 52.5493 28.5185 50.9626V50.0318C26.1618 48.4037 24.1306 46.3867 22.5089 44.0741H16.8519C13.278 44.0741 10.3704 41.1665 10.3704 37.5926V33.7037V32.4074V28.5185C10.3704 26.8307 11.458 25.4048 12.963 24.8681V22.037C12.963 9.88556 22.8485 0 35 0C47.1515 0 57.037 9.88556 57.037 22.037V24.8681C58.542 25.4048 59.6296 26.8307 59.6296 28.5185V33.7037C59.6296 35.8478 57.8848 37.5926 55.7407 37.5926H50.7098C49.0998 42.6404 45.85 47.0141 41.4815 50.0318V50.9626C41.4815 52.5493 42.4304 53.9609 43.8978 54.5611L57.1965 60.0017C64.9743 63.1854 70 70.6715 70 79.0741ZM23.3333 68.7037C23.3333 69.4193 23.9154 70 24.6296 70H27.6111L23.4163 58.463L23.3333 58.4967V68.7037ZM29.1265 70H40.8748L35 62.9507L29.1265 70ZM46.585 58.463L42.3889 70H45.3704C46.0846 70 46.6667 69.4193 46.6667 68.7037V58.4967L46.585 58.463ZM42.9165 56.9618C42.818 56.9217 42.7298 56.8659 42.6339 56.8206L36.8693 61.1437L41.0343 66.1396L44.183 57.4791L42.9165 56.9618ZM57.037 28.5185C57.037 27.8043 56.455 27.2222 55.7407 27.2222H51.8518V30.2698C51.8518 31.8837 51.6743 33.4626 51.367 35H55.7407C56.455 35 57.037 34.418 57.037 33.7037V28.5185ZM15.5556 22.037V24.6296H18.1481V17.6465L19.8541 18.2143C19.9306 18.2402 27.5346 20.7407 35 20.7407C42.4654 20.7407 50.0694 18.2402 50.1459 18.2143L51.8518 17.6478V24.6296H54.4444V22.037C54.4444 11.3154 45.7217 2.59259 35 2.59259C24.2783 2.59259 15.5556 11.3154 15.5556 22.037ZM12.963 32.4074V33.7037C12.963 34.418 13.545 35 14.2593 35H18.633C18.3257 33.4626 18.1481 31.8837 18.1481 30.2698V27.2222H14.2593C13.545 27.2222 12.963 27.8043 12.963 28.5185V32.4074ZM20.9261 41.4815C20.2715 40.2409 19.7206 38.942 19.2902 37.5926H14.2593C13.803 37.5926 13.37 37.4993 12.963 37.3541V37.5926C12.963 39.7367 14.7078 41.4815 16.8519 41.4815H20.9261ZM35 50.4804C43.5478 47.4406 49.2593 39.3737 49.2593 30.2698V21.188C46.4981 21.9618 40.7906 23.3333 35 23.3333C29.2094 23.3333 23.5019 21.9618 20.7407 21.188V30.2698C20.7407 34.3337 21.8854 38.1863 23.905 41.4815H28.7583C29.295 39.9765 30.7209 38.8889 32.4087 38.8889H37.5939C39.738 38.8889 41.4828 40.6337 41.4828 42.7778C41.4828 44.9218 39.738 46.6667 37.5939 46.6667H32.4087C30.7209 46.6667 29.295 45.5791 28.7583 44.0741H25.7717C28.1711 46.9285 31.3198 49.1724 35 50.4804ZM32.4074 44.0741H37.5926C38.3069 44.0741 38.8889 43.4933 38.8889 42.7778C38.8889 42.0622 38.3069 41.4815 37.5926 41.4815H32.4074C31.6931 41.4815 31.1111 42.0622 31.1111 42.7778C31.1111 43.4933 31.6931 44.0741 32.4074 44.0741ZM31.0644 51.5874C30.9348 52.9472 30.393 54.202 29.527 55.2015L35 59.3056L40.473 55.2015C39.607 54.202 39.0652 52.9472 38.9356 51.5874C37.8156 52.1707 36.6385 52.6724 35.4109 53.0807L35 53.2181L34.5904 53.082C33.3628 52.6724 32.1844 52.1707 31.0644 51.5874ZM25.817 57.4804L28.9657 66.1409L33.1307 61.145L27.3661 56.8218C27.2702 56.8659 27.182 56.923 27.0835 56.9631L25.817 57.4804ZM12.963 77.7778V62.7731C7.02722 65.5498 3.09944 71.2639 2.63796 77.7778H12.963ZM54.4444 77.7778V61.6791L49.2593 59.5583V68.7037C49.2593 70.8478 47.5144 72.5926 45.3704 72.5926H24.6296C22.4856 72.5926 20.7407 70.8478 20.7407 68.7037V59.557L15.5556 61.6778V77.7778H54.4444ZM67.362 77.7778C66.9006 71.2639 62.9728 65.5498 57.037 62.7731V77.7778H67.362ZM50.3235 15.015C49.8737 14.0324 49.3241 13.0874 48.6889 12.2059L46.5837 13.72C47.1217 14.4667 47.5857 15.2652 47.9656 16.0961L50.3235 15.015ZM46.1468 9.39815C43.0681 6.68111 39.1093 5.18518 35 5.18518V7.77778C38.478 7.77778 41.8276 9.04426 44.4306 11.3426L46.1468 9.39815Z" fill="url(#paint0_linear)"/>
<defs>
<linearGradient id="paint0_linear" x1="35" y1="25.6667" x2="35" y2="116.235" gradientUnits="userSpaceOnUse">
<stop stop-color="#343951"/>
<stop offset="1" stop-color="#03A9F4"/>
</linearGradient>
</defs>
</svg>
