<svg width="116" height="116" viewBox="0 0 116 116" fill="none" xmlns="http://www.w3.org/2000/svg">
<g clip-path="url(#clip0)">
<path d="M115.787 27.507C115.387 26.0223 114.413 24.7566 113.081 23.9892C111.747 23.2181 110.161 23.0095 108.674 23.4088C107.188 23.809 105.923 24.7821 105.155 26.1148L104.189 27.7967C103.27 27.2691 102.097 27.5796 101.56 28.4933L96.6502 36.8624L94.9683 35.8959C94.5228 35.6382 93.9923 35.5684 93.4959 35.7024C92.9984 35.8374 92.5756 36.164 92.3198 36.6113C91.796 37.5354 92.115 38.7095 93.0353 39.24L94.7172 40.2065L78.2867 68.6796L74.2272 79.5244L72.2942 83.1384C71.1625 85.1073 71.2833 87.5547 72.6037 89.4018L68.2545 94.7365L67.0369 91.6831C66.4876 90.3221 65.2162 89.3895 63.7542 89.2753C62.2912 89.1602 60.8896 89.8832 60.1355 91.1413L59.4399 92.3202L58.783 84.5882C58.6319 82.759 57.2152 81.2885 55.3936 81.0676C53.571 80.8477 51.8457 81.9397 51.2633 83.6802L46.5082 97.9455C46.176 98.9545 46.7196 100.042 47.7258 100.382C47.9145 100.469 48.1175 100.522 48.3251 100.535C49.1557 100.538 49.8957 100.009 50.1618 99.2216L54.8971 84.9563L55.5739 92.8034C55.7136 94.4778 56.917 95.87 58.5536 96.2494C60.1902 96.6289 61.8835 95.9078 62.7452 94.4665L63.4607 93.2867L64.6594 96.3221C65.1681 97.601 66.3186 98.5137 67.6806 98.7167C69.0426 98.9196 70.4093 98.3825 71.2701 97.3075L75.7741 91.6057C76.2725 91.7359 76.7859 91.8011 77.3013 91.7992C79.373 91.8152 81.2966 90.7241 82.3462 88.9374L84.2792 85.7095L91.644 76.7599L108.248 47.9385L109.93 48.905C110.378 49.1617 110.705 49.5855 110.838 50.0848C110.972 50.5803 110.902 51.1089 110.646 51.5534L102.914 64.9495C102.622 65.3893 102.523 65.9292 102.64 66.4445C102.757 66.9589 103.079 67.4035 103.532 67.6744C103.977 67.933 104.508 68.0028 105.004 67.8688C105.502 67.7338 105.924 67.4073 106.18 66.9599L113.912 53.5638C114.683 52.2302 114.892 50.6445 114.492 49.157C114.092 47.6714 113.118 46.4057 111.786 45.6383L110.104 44.6718L114.936 36.3018C115.464 35.3834 115.153 34.2111 114.241 33.6731L115.207 31.9912C115.999 30.6368 116.209 29.019 115.787 27.507ZM108.499 28.0478C108.755 27.6004 109.18 27.2729 109.679 27.1398C110.176 27.0171 110.7 27.086 111.148 27.3333C111.596 27.5891 111.923 28.0138 112.057 28.5122C112.179 29.0086 112.11 29.5334 111.863 29.9808L110.897 31.6627L107.533 29.7297L108.499 28.0478ZM82.1527 82.0181L81.1862 81.4574L78.3254 79.7944L81.0701 72.4493L87.1588 75.967L82.1527 82.0181ZM76.3537 87.6038C75.5372 87.0346 75.2862 85.9398 75.7741 85.0714L76.7406 83.3904L80.1036 85.3234L79.1371 86.9855C78.8662 87.4556 78.4112 87.7897 77.8817 87.9077C77.3522 88.0247 76.7982 87.9152 76.3537 87.6038ZM89.3627 72.7976L82.6746 68.9316L98.1386 42.1395L104.827 46.0055L89.3627 72.7976ZM106.76 42.6614L100.072 38.7954L103.938 32.1073L110.626 35.9733L106.76 42.6614Z" fill="url(#paint0_linear)"/>
<path d="M30.5024 86.6371L23.6605 93.4612L19.5623 89.363C18.8081 88.6136 17.5906 88.6136 16.8364 89.363C16.4702 89.7264 16.2645 90.22 16.2645 90.7353C16.2645 91.2507 16.4702 91.7452 16.8364 92.1077L20.9346 96.2059C21.6595 96.9251 22.6392 97.3281 23.6605 97.3272C24.6874 97.3328 25.6756 96.9298 26.4052 96.2059L33.2283 89.363C33.8852 88.5956 33.8408 87.4526 33.1273 86.7391C32.4128 86.0246 31.2698 85.9802 30.5024 86.6371Z" fill="url(#paint1_linear)"/>
<path d="M7.73206 91.8372C7.73206 100.912 15.0884 108.268 24.1626 108.268C33.2368 108.268 40.5931 100.912 40.5931 91.8372C40.5931 90.7697 39.7276 89.9042 38.6601 89.9042C37.5926 89.9042 36.7271 90.7697 36.7271 91.8372C36.7271 98.7764 31.1018 104.402 24.1626 104.402C17.2234 104.402 11.5981 98.7764 11.5981 91.8372C11.5981 84.8981 17.2234 79.2727 24.1626 79.2727C26.8828 79.2652 29.5303 80.1477 31.7011 81.7862C32.5553 82.4271 33.7672 82.2534 34.4071 81.3992C35.048 80.545 34.8753 79.3341 34.0211 78.6932C29.0423 74.9593 22.3806 74.359 16.8147 77.1415C11.2479 79.9249 7.73206 85.6144 7.73206 91.8372Z" fill="url(#paint2_linear)"/>
<path d="M69.5882 15.4834C70.6557 15.4834 71.5212 14.6189 71.5212 13.5504C71.5212 12.4829 70.6557 11.6174 69.5882 11.6174H19.33C18.2625 11.6174 17.397 12.4829 17.397 13.5504V21.2825C17.397 22.3509 18.2625 23.2155 19.33 23.2155H69.5882C70.6557 23.2155 71.5212 22.3509 71.5212 21.2825C71.5212 20.215 70.6557 19.3494 69.5882 19.3494H21.263V15.4834H69.5882Z" fill="url(#paint3_linear)"/>
<path d="M25.129 27.0813C24.0616 27.0813 23.196 27.9468 23.196 29.0143C23.196 30.0827 24.0616 30.9473 25.129 30.9473H63.7891C64.8566 30.9473 65.7221 30.0827 65.7221 29.0143C65.7221 27.9468 64.8566 27.0813 63.7891 27.0813H25.129Z" fill="url(#paint4_linear)"/>
<path d="M75.3872 40.6123H32.8611C31.7936 40.6123 30.9281 41.4778 30.9281 42.5453C30.9281 43.6137 31.7936 44.4783 32.8611 44.4783H75.3872C76.4547 44.4783 77.3202 43.6137 77.3202 42.5453C77.3202 41.4778 76.4547 40.6123 75.3872 40.6123Z" fill="url(#paint5_linear)"/>
<path d="M56.0571 54.1435C56.0571 53.076 55.1916 52.2104 54.1241 52.2104H15.464C14.3965 52.2104 13.531 53.076 13.531 54.1435C13.531 55.2119 14.3965 56.0765 15.464 56.0765H54.1241C55.1916 56.0765 56.0571 55.2119 56.0571 54.1435Z" fill="url(#paint6_linear)"/>
<path d="M75.3871 52.2104H61.8561C60.7886 52.2104 59.9231 53.076 59.9231 54.1435C59.9231 55.2119 60.7886 56.0765 61.8561 56.0765H75.3871C76.4546 56.0765 77.3201 55.2119 77.3201 54.1435C77.3201 53.076 76.4546 52.2104 75.3871 52.2104Z" fill="url(#paint7_linear)"/>
<path d="M34.794 65.7415C35.8615 65.7415 36.7271 64.8769 36.7271 63.8085C36.7271 62.741 35.8615 61.8755 34.794 61.8755H15.464C14.3965 61.8755 13.531 62.741 13.531 63.8085C13.531 64.8769 14.3965 65.7415 15.464 65.7415H34.794Z" fill="url(#paint8_linear)"/>
<path d="M42.5261 65.7415H56.0571C57.1246 65.7415 57.9901 64.8769 57.9901 63.8085C57.9901 62.741 57.1246 61.8755 56.0571 61.8755H42.5261C41.4586 61.8755 40.5931 62.741 40.5931 63.8085C40.5931 64.8769 41.4586 65.7415 42.5261 65.7415Z" fill="url(#paint9_linear)"/>
<path d="M86.9852 88.9387C85.9177 88.9387 85.0522 89.8042 85.0522 90.8717V110.202C85.0522 111.27 84.1867 112.135 83.1192 112.135H5.79901C4.73152 112.135 3.86601 111.27 3.86601 110.202V5.81952C3.86601 4.75203 4.73152 3.88652 5.79901 3.88652H83.1192C84.1867 3.88652 85.0522 4.75203 85.0522 5.81952V42.1219C85.0522 43.1894 85.9177 44.0549 86.9852 44.0549C88.0527 44.0549 88.9182 43.1894 88.9182 42.1219V5.81952C88.9182 2.61704 86.3217 0.0205078 83.1192 0.0205078H5.79901C2.59653 0.0205078 0 2.61704 0 5.81952V110.202C0 113.405 2.59653 116.001 5.79901 116.001H83.1192C86.3217 116.001 88.9182 113.405 88.9182 110.202V90.8717C88.9182 89.8042 88.0527 88.9387 86.9852 88.9387Z" fill="url(#paint10_linear)"/>
</g>
<defs>
<linearGradient id="paint0_linear" x1="81.2053" y1="47.9046" x2="81.2053" y2="135.041" gradientUnits="userSpaceOnUse">
<stop stop-color="#343951"/>
<stop offset="1" stop-color="#03A9F4"/>
</linearGradient>
<linearGradient id="paint1_linear" x1="24.9788" y1="89.7347" x2="24.9788" y2="102.305" gradientUnits="userSpaceOnUse">
<stop stop-color="#343951"/>
<stop offset="1" stop-color="#03A9F4"/>
</linearGradient>
<linearGradient id="paint2_linear" x1="24.1626" y1="85.9014" x2="24.1626" y2="122.931" gradientUnits="userSpaceOnUse">
<stop stop-color="#343951"/>
<stop offset="1" stop-color="#03A9F4"/>
</linearGradient>
<linearGradient id="paint3_linear" x1="44.4591" y1="15.3213" x2="44.4591" y2="28.3909" gradientUnits="userSpaceOnUse">
<stop stop-color="#343951"/>
<stop offset="1" stop-color="#03A9F4"/>
</linearGradient>
<linearGradient id="paint4_linear" x1="44.4591" y1="28.3159" x2="44.4591" y2="32.6725" gradientUnits="userSpaceOnUse">
<stop stop-color="#343951"/>
<stop offset="1" stop-color="#03A9F4"/>
</linearGradient>
<linearGradient id="paint5_linear" x1="54.1241" y1="41.8469" x2="54.1241" y2="46.2035" gradientUnits="userSpaceOnUse">
<stop stop-color="#343951"/>
<stop offset="1" stop-color="#03A9F4"/>
</linearGradient>
<linearGradient id="paint6_linear" x1="34.7941" y1="53.4451" x2="34.7941" y2="57.8016" gradientUnits="userSpaceOnUse">
<stop stop-color="#343951"/>
<stop offset="1" stop-color="#03A9F4"/>
</linearGradient>
<linearGradient id="paint7_linear" x1="68.6216" y1="53.4451" x2="68.6216" y2="57.8016" gradientUnits="userSpaceOnUse">
<stop stop-color="#343951"/>
<stop offset="1" stop-color="#03A9F4"/>
</linearGradient>
<linearGradient id="paint8_linear" x1="25.129" y1="63.1101" x2="25.129" y2="67.4666" gradientUnits="userSpaceOnUse">
<stop stop-color="#343951"/>
<stop offset="1" stop-color="#03A9F4"/>
</linearGradient>
<linearGradient id="paint9_linear" x1="49.2916" y1="63.1101" x2="49.2916" y2="67.4666" gradientUnits="userSpaceOnUse">
<stop stop-color="#343951"/>
<stop offset="1" stop-color="#03A9F4"/>
</linearGradient>
<linearGradient id="paint10_linear" x1="44.4591" y1="37.0594" x2="44.4591" y2="167.755" gradientUnits="userSpaceOnUse">
<stop stop-color="#343951"/>
<stop offset="1" stop-color="#03A9F4"/>
</linearGradient>
<clipPath id="clip0">
<rect width="116" height="116" fill="white"/>
</clipPath>
</defs>
</svg>
