<svg width="116" height="116" viewBox="0 0 116 116" fill="none" xmlns="http://www.w3.org/2000/svg">
<path d="M82.3777 71.2516C81.3387 70.3211 79.7424 70.4119 78.817 71.4483C73.5566 77.3265 65.9712 80.6955 58 80.6955C50.0313 80.6955 42.4434 77.3265 37.183 71.4483C36.2525 70.4119 34.6613 70.3211 33.6223 71.2516C32.5834 72.1796 32.4977 73.7733 33.4257 74.8123C39.6417 81.7571 48.599 85.739 58 85.739C67.4036 85.739 76.3608 81.7546 82.5743 74.8123C83.5023 73.7733 83.4141 72.1796 82.3777 71.2516Z" fill="url(#paint0_linear)"/>
<path d="M58 0C26.0193 0 0 26.0193 0 58C0 89.9807 26.0193 116 58 116C89.9807 116 116 89.9807 116 58C116 26.0193 89.9807 0 58 0ZM58 110.957C28.7983 110.957 5.04348 87.2017 5.04348 58C5.04348 28.7983 28.7983 5.04348 58 5.04348C87.2017 5.04348 110.957 28.7983 110.957 58C110.957 87.2017 87.2017 110.957 58 110.957Z" fill="url(#paint1_linear)"/>
<path d="M78.1739 40.3477C71.2215 40.3477 65.5652 46.0039 65.5652 52.9564C65.5652 54.3484 66.695 55.4781 68.087 55.4781C69.479 55.4781 70.6087 54.3484 70.6087 52.9564C70.6087 48.7854 74.003 45.3911 78.1739 45.3911C82.3449 45.3911 85.7391 48.7854 85.7391 52.9564C85.7391 54.3484 86.8689 55.4781 88.2609 55.4781C89.6529 55.4781 90.7826 54.3484 90.7826 52.9564C90.7826 46.0039 85.1264 40.3477 78.1739 40.3477Z" fill="url(#paint2_linear)"/>
<path d="M45.3913 52.9564C45.3913 54.3484 46.521 55.4781 47.913 55.4781C49.305 55.4781 50.4348 54.3484 50.4348 52.9564C50.4348 46.0039 44.7785 40.3477 37.8261 40.3477C30.8736 40.3477 25.2174 46.0039 25.2174 52.9564C25.2174 54.3484 26.3471 55.4781 27.7391 55.4781C29.1311 55.4781 30.2609 54.3484 30.2609 52.9564C30.2609 48.7854 33.6551 45.3911 37.8261 45.3911C41.997 45.3911 45.3913 48.7854 45.3913 52.9564Z" fill="url(#paint3_linear)"/>
<defs>
<linearGradient id="paint0_linear" x1="57.9996" y1="75.4404" x2="57.9996" y2="92.4908" gradientUnits="userSpaceOnUse">
<stop stop-color="#343951"/>
<stop offset="1" stop-color="#03A9F4"/>
</linearGradient>
<linearGradient id="paint1_linear" x1="58" y1="37.0452" x2="58" y2="167.763" gradientUnits="userSpaceOnUse">
<stop stop-color="#343951"/>
<stop offset="1" stop-color="#03A9F4"/>
</linearGradient>
<linearGradient id="paint2_linear" x1="78.1739" y1="45.1796" x2="78.1739" y2="62.2298" gradientUnits="userSpaceOnUse">
<stop stop-color="#343951"/>
<stop offset="1" stop-color="#03A9F4"/>
</linearGradient>
<linearGradient id="paint3_linear" x1="37.8261" y1="45.1796" x2="37.8261" y2="62.2298" gradientUnits="userSpaceOnUse">
<stop stop-color="#343951"/>
<stop offset="1" stop-color="#03A9F4"/>
</linearGradient>
</defs>
</svg>
