<svg width="102" height="116" viewBox="0 0 102 116" fill="none" xmlns="http://www.w3.org/2000/svg">
<path d="M77.1093 0.63639C76.6705 0.227349 76.0934 0 75.494 0H36.1883C29.6326 0.00745405 24.3201 5.34269 24.3127 11.9265V17.6344H11.8757C5.31993 17.6419 0.0074223 22.9771 0 29.5609V104.074C0.0074223 110.657 5.31993 115.993 11.8757 116H64.4617C71.0175 115.993 76.33 110.657 76.3374 104.074V98.3665H90.1243C96.6801 98.359 101.993 93.0238 102 86.44V24.8695C102 24.2061 101.724 23.5725 101.24 23.1215L77.1093 0.63639ZM77.6873 7.68327L92.7342 21.7034H82.4376C79.8148 21.7006 77.6901 19.566 77.6873 16.9328V7.68327ZM64.4608 111.228H11.8757C7.94279 111.224 4.75491 108.023 4.75027 104.073V29.56C4.75491 25.6103 7.94279 22.4088 11.8757 22.4041H47.2735V35.923C47.28 41.1902 51.5302 45.4586 56.7741 45.4641H71.5862V104.074C71.5816 108.024 68.3946 111.225 64.4608 111.229V111.228ZM52.0238 24.9599L68.5969 40.6936H56.7741C54.1522 40.6908 52.0275 38.5561 52.0238 35.923V24.9599ZM90.1234 93.5959H76.3365V42.504C76.3365 41.848 76.0674 41.2209 75.5933 40.7709L51.9097 18.2848C51.4681 17.8664 50.8845 17.6326 50.2777 17.6326H29.0629V11.9265C29.0676 7.97584 32.2545 4.77525 36.1883 4.7706H72.9371V16.9328C72.9426 22.1991 77.1928 26.4675 82.4376 26.474H97.2488V86.44C97.2442 90.3897 94.0572 93.5912 90.1234 93.5959Z" fill="url(#paint0_linear)"/>
<defs>
<linearGradient id="paint0_linear" x1="51" y1="37.0452" x2="51" y2="167.763" gradientUnits="userSpaceOnUse">
<stop stop-color="#343951"/>
<stop offset="1" stop-color="#03A9F4"/>
</linearGradient>
</defs>
</svg>
