<svg width="116" height="116" viewBox="0 0 116 116" fill="none" xmlns="http://www.w3.org/2000/svg">
<g clip-path="url(#clip0)">
<path d="M54.6531 85.8422C53.7806 85.202 52.5529 85.3889 51.9117 86.2618L51.6695 86.5915C51.029 87.4637 51.2155 88.6897 52.0868 89.3315C52.4369 89.5896 52.8447 89.7142 53.2486 89.7142C53.8497 89.7142 54.4431 89.4387 54.8273 88.918L55.0732 88.5839C55.7141 87.7109 55.5261 86.4834 54.6531 85.8422Z" fill="url(#paint0_linear)"/>
<path d="M55.1649 104.5L50.1209 95.3283L54.8303 88.9143C55.4717 88.0414 55.2834 86.8139 54.4102 86.1727C53.5373 85.5313 52.3097 85.7196 51.6688 86.593L46.2181 94.0163C45.7662 94.6316 45.7127 95.4532 46.0804 96.1222L51.7282 106.39V106.39C52.0855 107.039 52.7563 107.406 53.4485 107.406C53.7681 107.406 54.0921 107.328 54.3919 107.163C55.3407 106.642 55.6869 105.449 55.1649 104.5Z" fill="url(#paint1_linear)"/>
<path d="M69.7823 94.0164L64.3539 86.6232C63.9037 86.0103 63.1408 85.7124 62.3945 85.8601C61.6485 86.0067 61.0547 86.5717 60.8702 87.3092C60.7286 87.8756 60.8467 88.4751 61.1922 88.9457L65.8784 95.3284L60.8689 104.438C60.7098 104.727 60.6262 105.053 60.6262 105.384C60.6262 106.279 61.2325 107.061 62.0996 107.283C62.262 107.325 62.4258 107.346 62.5876 107.346C63.2897 107.346 63.9551 106.967 64.3061 106.329L69.9198 96.1227C70.288 95.4532 70.2341 94.6317 69.7823 94.0164Z" fill="url(#paint2_linear)"/>
<path d="M72.8901 63.1957C72.245 62.857 71.4652 62.9033 70.865 63.317C69.6985 64.1206 68.616 64.972 67.6476 65.8472C62.3696 70.6186 57.3551 69.9729 57.1587 69.9448C57.0404 69.9262 56.9201 69.9176 56.8011 69.9215C54.7152 69.975 50.9542 68.0689 46.9756 64.9441C46.367 64.4663 45.7431 64.0109 45.12 63.5904C44.5192 63.1844 43.7427 63.1434 43.1025 63.4839C42.462 63.8242 42.0616 64.4903 42.0616 65.2158V71.9438C42.0616 72.5387 42.3324 73.1011 42.7964 73.4735C42.8512 73.5177 42.9083 73.5585 42.9672 73.5961L56.8739 82.8888C56.8761 82.8902 56.8782 82.892 56.8804 82.8936L56.9172 82.918C57.2445 83.1346 57.6218 83.2441 58.0003 83.2441C58.3189 83.2441 58.6374 83.1668 58.9286 83.0112C58.99 82.9783 59.0489 82.9423 59.1055 82.9038C59.1121 82.8995 59.1187 82.8952 59.1255 82.8906C59.1332 82.8857 59.1409 82.8804 59.1486 82.8752L73.0224 73.6045C73.0781 73.5692 73.1325 73.5311 73.1848 73.4903C73.6608 73.1187 73.9391 72.5485 73.9391 71.9445V64.9321C73.9391 64.203 73.5353 63.5349 72.8901 63.1957ZM70.0163 70.8948L58.0001 78.9242L45.9841 70.8946V69.1108C48.91 71.2371 53.214 73.8451 56.7223 73.8449C56.7296 73.8449 56.7377 73.8449 56.7452 73.8449C57.9231 73.9752 63.93 74.3293 70.0168 68.9896V70.8948H70.0163Z" fill="url(#paint3_linear)"/>
<path d="M59.9348 80.9605C59.8054 80.1827 59.2224 79.558 58.4553 79.375C57.6877 79.193 56.8861 79.4864 56.4194 80.1222L51.9115 86.2623C51.2703 87.1354 51.4583 88.363 52.3317 89.0039C52.6813 89.2608 53.0878 89.3845 53.4908 89.3845C54.094 89.3845 54.6889 89.107 55.0736 88.5834L59.558 82.4757C59.8131 82.1422 59.9617 81.7272 59.9617 81.2835C59.9615 81.1757 59.9524 81.0669 59.9348 80.9605Z" fill="url(#paint4_linear)"/>
<path d="M87.8795 17.7335C87.8405 17.4263 86.9218 10.7957 80.6804 8.18002C80.8617 7.01549 80.8427 5.51882 80.1034 4.0627C79.1097 2.10565 77.1488 0.830323 74.2748 0.271619C74.1516 0.247604 74.0265 0.235596 73.9008 0.235596H47.5771C36.8883 0.235596 28.1921 8.93153 28.1921 19.6208V29.95C28.1921 32.6411 29.1095 35.2654 30.7747 37.3389C31.6003 38.367 32.6171 40.1626 32.7705 42.8772C32.8303 43.9371 33.7176 44.7561 34.784 44.7267C35.8452 44.6968 36.6898 43.8277 36.6898 42.7662V29.2993C38.0216 23.7918 42.5667 22.7199 43.3481 22.5752H51.8628C52.8644 22.5752 53.8493 22.4222 54.7906 22.1204C56.4097 21.6012 58.9782 20.6455 60.8483 19.9352C62.0993 19.4597 63.4845 19.4422 64.7481 19.8863L73.8636 23.0863C78.4207 24.7674 79.2341 28.768 79.3349 29.3965V45.5588C79.3349 46.5854 80.1263 47.437 81.1499 47.5134C81.1997 47.517 81.2487 47.5191 81.2976 47.5191C82.2596 47.5188 83.0902 46.814 83.2358 45.8482C83.2436 45.7976 84.0266 40.7392 86.5518 36.6891C87.4304 35.2792 87.8951 33.6718 87.8951 32.0405V17.9811C87.8951 17.8984 87.8899 17.8157 87.8795 17.7335ZM83.9724 32.0396C83.9724 32.9157 83.7252 33.7848 83.2571 34.5576V29.2624C83.2571 29.1915 83.2533 29.121 83.2456 29.0506C83.2148 28.7658 82.4044 22.0445 75.2031 19.3992C75.1942 19.396 75.1854 19.3929 75.1765 19.3897L66.0472 16.1847C65.0179 15.8234 63.9411 15.643 62.8649 15.643C61.7076 15.643 60.551 15.8517 59.4551 16.2685C56.837 17.2632 54.8094 17.9952 53.5926 18.3853C53.0391 18.5627 52.457 18.6529 51.8625 18.6529H43.1895C43.1054 18.6529 43.0211 18.6583 42.9375 18.669C42.6056 18.712 34.7831 19.8245 32.8145 28.6479C32.7832 28.7882 32.7674 28.9314 32.7674 29.075V33.1115C32.3403 32.1246 32.1142 31.0466 32.1142 29.9502V19.6212C32.1142 11.0952 39.0508 4.15853 47.5766 4.15853H73.7028C74.7844 4.38895 76.0989 4.86178 76.5975 5.82377C77.2081 7.00122 76.5126 8.6225 76.5119 8.62386C76.2611 9.15742 76.264 9.77525 76.5189 10.3065C76.774 10.8378 77.2548 11.2262 77.828 11.3641C82.821 12.5661 83.8394 17.3549 83.9722 18.1295V32.0396H83.9724Z" fill="url(#paint5_linear)"/>
<path d="M83.2458 29.0505C83.215 28.7657 82.4046 22.0445 75.2033 19.3991C75.1944 19.396 75.1856 19.3928 75.1768 19.3896L66.0474 16.1846C63.9109 15.4347 61.5701 15.4646 59.4551 16.268C56.8369 17.2626 54.8094 17.9947 53.5926 18.385C53.0391 18.5624 52.457 18.6524 51.8625 18.6524H43.1895C43.1054 18.6524 43.0211 18.6578 42.9375 18.6685C42.6056 18.7115 34.7831 19.8239 32.8145 28.6474C32.7832 28.7877 32.7673 28.9308 32.7673 29.0745V45.9344C32.7673 45.9489 32.7676 45.9634 32.7678 45.9779C32.7807 46.5636 33.1951 60.3946 42.7515 66.72L42.8009 66.7549C42.8419 66.7839 42.8829 66.8129 42.9257 66.8416C43.4706 67.2096 44.0178 67.609 44.5529 68.029C47.3369 70.2151 52.5834 73.8449 56.7223 73.8449C56.73 73.8449 56.7372 73.8449 56.7452 73.8449C56.9699 73.8696 57.3712 73.9027 57.9154 73.9027C60.261 73.9027 65.2653 73.288 70.2778 68.7568C71.119 67.9966 72.0649 67.2531 73.0903 66.5466L73.2369 66.444C73.2847 66.4102 73.3325 66.3763 73.3819 66.3432C76.5697 64.2022 82.0905 58.6777 83.2496 45.7332C83.2549 45.6752 83.2576 45.6165 83.2576 45.5581V29.2623C83.2573 29.1916 83.2533 29.1212 83.2458 29.0505ZM79.3346 45.4695C78.2659 57.1515 73.2886 61.6803 71.1947 63.0866C71.1204 63.1366 71.047 63.1883 70.9736 63.24L70.8648 63.3165C69.6982 64.1202 68.6157 64.9716 67.6474 65.8468C62.3891 70.6005 57.3909 69.977 57.1457 69.9426C57.0318 69.9256 56.9162 69.9184 56.8009 69.9215C54.7149 69.975 50.954 68.0689 46.9753 64.9442C46.3668 64.4661 45.7428 64.0107 45.1207 63.5909L45.0724 63.5569C45.0253 63.5234 44.9784 63.4901 44.9231 63.4534C37.2114 58.3491 36.7068 46.4045 36.6898 45.9061V29.299C38.0263 23.7713 42.5995 22.7117 43.3449 22.5749H51.8627C52.8644 22.5749 53.8492 22.4219 54.7906 22.1201C56.4096 21.6009 58.9784 20.6452 60.8482 19.9349C62.0993 19.4594 63.4845 19.4419 64.7481 19.886L73.8636 23.086C78.4207 24.7671 79.234 28.7677 79.3349 29.3962V45.4695H79.3346Z" fill="url(#paint6_linear)"/>
<path d="M59.7542 80.4068C59.4485 79.7955 58.8468 79.3875 58.166 79.3295C57.4863 79.2733 56.8233 79.5721 56.4189 80.1231L51.7209 86.5217C51.0804 87.3944 51.2676 88.621 52.1396 89.2624C52.4894 89.5198 52.8966 89.6442 53.3001 89.6442C53.9018 89.6442 54.4959 89.368 54.8803 88.8463L59.5786 82.4712C59.8271 82.1341 59.9612 81.7032 59.9612 81.2845C59.9615 80.9802 59.8901 80.6793 59.7542 80.4068Z" fill="url(#paint7_linear)"/>
<path d="M59.8799 111.985C59.1431 111.214 57.9258 111.173 57.1392 111.893L56.6908 112.303C56.0195 112.917 55.8584 113.912 56.3021 114.706L56.3159 114.731C56.6154 115.268 57.1496 115.633 57.7584 115.717C57.8486 115.73 57.9387 115.736 58.0285 115.736C58.5448 115.736 59.0448 115.532 59.4153 115.161L59.8496 114.727C60.6033 113.973 60.6169 112.755 59.8799 111.985Z" fill="url(#paint8_linear)"/>
<path d="M59.3094 112.303L58.861 111.893C58.0744 111.173 56.8569 111.214 56.1201 111.985C55.3831 112.755 55.3967 113.974 56.1507 114.727L56.5857 115.162C56.9561 115.532 57.4559 115.736 57.9722 115.736C58.0644 115.736 58.1571 115.73 58.2498 115.717C58.8606 115.629 59.3948 115.259 59.6918 114.718L59.7057 114.694C60.1402 113.901 59.9766 112.913 59.3094 112.303Z" fill="url(#paint9_linear)"/>
<path d="M59.3425 112.333L59.34 112.331C59.0371 112.048 58.6453 111.861 58.2137 111.814C57.6358 111.751 57.0728 111.947 56.6634 112.328L56.6575 112.333C56.261 112.695 56.0301 113.204 56.0186 113.74C56.007 114.277 56.2159 114.795 56.5963 115.173L56.6169 115.194C56.9996 115.574 57.4996 115.764 57.9999 115.764C58.5019 115.764 59.0038 115.573 59.3864 115.19L59.4071 115.17C59.7859 114.79 59.9934 114.273 59.9809 113.738C59.9692 113.202 59.7383 112.695 59.3425 112.333Z" fill="url(#paint10_linear)"/>
<path d="M58.6363 79.385C57.8241 79.1249 56.9328 79.4265 56.4382 80.122C55.8849 80.9009 55.9762 81.9624 56.6502 82.6396C57.0295 83.0207 57.5329 83.216 58.0402 83.216C58.4342 83.216 58.8302 83.0981 59.1719 82.8575C59.6939 82.4903 60.0045 81.8922 60.0045 81.2537V81.2489C60.0045 80.3955 59.4494 79.6444 58.6363 79.385Z" fill="url(#paint11_linear)"/>
<path d="M59.5937 80.1061L59.577 80.0834C59.0738 79.4024 58.1902 79.1219 57.3861 79.3867C56.5821 79.6516 56.0388 80.4029 56.0388 81.2493V81.2828C56.0388 82.0049 56.4441 82.6631 57.0803 83.0047C57.3685 83.1595 57.6865 83.2358 58.0042 83.2358C58.3873 83.2358 58.77 83.1248 59.0989 82.9068C59.5473 82.6101 59.8543 82.142 59.9479 81.6125C60.0414 81.0832 59.9134 80.5384 59.5937 80.1061Z" fill="url(#paint12_linear)"/>
<path d="M81.3313 73.945C81.1281 73.4079 80.6997 72.9869 80.1591 72.7934L72.6392 70.0978C72.5783 70.076 72.5151 70.0565 72.4521 70.0411C71.9154 69.9068 71.3467 70.0053 70.8868 70.313L56.9536 79.6234C56.95 79.6259 56.9459 79.6284 56.9421 79.6311L58.0361 81.2578L56.9176 79.6476C56.5089 79.9179 56.2162 80.3323 56.0974 80.8076C56.0322 81.0686 56.0215 81.3412 56.0657 81.6065C56.1162 81.9096 56.2372 82.1969 56.4194 82.445L66.6204 96.3381C66.991 96.8433 67.5792 97.1387 68.2009 97.1387C68.2435 97.1387 68.2863 97.1371 68.3291 97.1342C68.9972 97.0903 69.597 96.7092 69.9196 96.1221L81.2153 75.5847C81.4924 75.0813 81.5348 74.4818 81.3313 73.945ZM67.9634 91.5397L60.7939 81.7748L72.2448 74.1231L76.6703 75.7097L67.9634 91.5397Z" fill="url(#paint13_linear)"/>
<path d="M59.9325 80.9452C59.8403 80.4187 59.5373 79.9526 59.0933 79.6547L45.1137 70.3133C44.6687 70.0156 44.1202 69.9136 43.5975 70.0296C43.5173 70.0473 43.4385 70.0704 43.3612 70.0981L35.8414 72.7937C35.3008 72.9874 34.8724 73.4084 34.6691 73.9453C34.4659 74.4825 34.508 75.0815 34.7849 75.585L46.0806 96.1224C46.4033 96.7092 47.003 97.0905 47.6711 97.1345C47.7137 97.1372 47.7565 97.1386 47.7991 97.1386C48.4208 97.1386 49.0087 96.8431 49.3801 96.3377L54.8307 88.9143C54.835 88.9087 54.8393 88.9026 54.8436 88.8964L59.5813 82.4437C59.8976 82.0128 60.0245 81.4717 59.9325 80.9452ZM51.6693 86.5921C51.6645 86.5984 51.66 86.6048 51.6552 86.6111L48.0363 91.54L39.3295 75.7098L43.7552 74.1234L55.2059 81.7751L51.6693 86.5921Z" fill="url(#paint14_linear)"/>
<path d="M115.903 107.426L113.373 92.1483C112.576 87.3336 109.23 83.311 104.64 81.6512L80.1639 72.7957C79.4092 72.523 78.5657 72.7368 78.0324 73.3354C77.499 73.9342 77.3837 74.7974 77.7417 75.5154L82.852 85.7637L77.8375 85.841C77.1567 85.8517 76.5298 86.2142 76.182 86.7996C75.834 87.385 75.8145 88.1087 76.1304 88.712L78.1871 92.639L57.1387 111.894C57.1172 111.914 57.0961 111.934 57.0755 111.954L56.641 112.389C56.0254 113.005 55.8892 113.952 56.3072 114.716L56.3226 114.744C56.6668 115.373 57.3265 115.764 58.0434 115.764H108.832C110.942 115.764 112.935 114.842 114.299 113.232C115.663 111.623 116.248 109.507 115.903 107.426ZM111.308 110.696C110.69 111.424 109.787 111.842 108.832 111.842H63.0065L81.9496 94.5136C82.6067 93.913 82.7766 92.9453 82.3633 92.1567L81.0837 89.7136L86.0287 89.6375C86.7027 89.6273 87.3237 89.2714 87.6742 88.6957C88.0242 88.1195 88.0544 87.4045 87.7537 86.8012L83.4406 78.1519L103.307 85.3392C106.564 86.5173 108.938 89.372 109.504 92.7888L112.034 108.067C112.034 108.067 112.034 108.067 112.034 108.067C112.19 109.009 111.925 109.967 111.308 110.696Z" fill="url(#paint15_linear)"/>
<path d="M59.3595 112.349L59.3366 112.328C58.5604 111.626 57.3682 111.657 56.6297 112.4L56.6093 112.42C56.0508 112.982 55.8852 113.825 56.1892 114.556C56.4935 115.288 57.2081 115.764 58.0001 115.764H58.0432C58.854 115.764 59.5815 115.265 59.8729 114.508C60.1649 113.751 59.9608 112.893 59.3595 112.349Z" fill="url(#paint16_linear)"/>
<path d="M59.2979 112.293C58.8527 111.892 58.2489 111.716 57.6576 111.817C57.0669 111.917 56.5544 112.282 56.2662 112.807L56.2526 112.832C55.8392 113.586 55.9649 114.521 56.5628 115.139L56.5698 115.146C56.9541 115.543 57.4661 115.744 57.9795 115.744C58.4519 115.744 58.9256 115.574 59.3008 115.231L59.3214 115.212C59.4995 115.05 59.6463 114.856 59.7542 114.64C60.1491 113.851 59.9538 112.882 59.2979 112.293Z" fill="url(#paint17_linear)"/>
<path d="M59.3826 112.412L59.3744 112.404C59.3692 112.399 59.3638 112.393 59.3588 112.388L58.9238 111.954C58.9034 111.933 58.8823 111.913 58.861 111.894L37.8127 92.6388L39.8696 88.7118C40.1857 88.1086 40.166 87.3848 39.8182 86.7993C39.4702 86.2141 38.8435 85.8514 38.1627 85.8408L33.1477 85.7635L38.2581 75.5152C38.6161 74.7974 38.5005 73.934 37.9674 73.3352C37.4343 72.7364 36.5897 72.5223 35.8359 72.7955L11.3596 81.6509C6.77037 83.3105 3.42403 87.3331 2.62676 92.148L0.0967268 107.426C-0.247875 109.508 0.33711 111.624 1.70147 113.232C3.06606 114.841 5.05868 115.764 7.16798 115.764H58.0001C58.7944 115.764 59.5102 115.285 59.8128 114.551C60.1158 113.817 59.9458 112.972 59.3826 112.412ZM7.16821 111.842C6.21302 111.842 5.31085 111.424 4.69324 110.695C4.07563 109.967 3.811 109.009 3.96688 108.066L6.4969 92.7885C7.06263 89.3713 9.43724 86.517 12.6941 85.3389L32.5603 78.1517L28.2474 86.8005C27.9465 87.4038 27.9764 88.1188 28.3269 88.695C28.677 89.2709 29.2984 89.6266 29.9725 89.6368L34.9174 89.7132L33.6378 92.1562C33.2248 92.9446 33.3947 93.9125 34.0513 94.5131L52.9944 111.842H7.16821Z" fill="url(#paint18_linear)"/>
<path d="M64.6755 88.259C64.8171 87.6926 64.6991 87.0929 64.3536 86.6223L59.5808 80.1225C59.0792 79.4391 58.1947 79.1675 57.3895 79.4317C56.9547 79.5742 56.5965 79.8619 56.3582 80.2296L51.6726 86.5872C51.6056 86.6778 51.546 86.7752 51.4955 86.8763C51.1744 87.5186 51.2299 88.2848 51.64 88.8741L53.6354 91.7395L51.5097 105.138C51.4416 105.568 51.5186 106.008 51.7284 106.39L56.2818 114.669C56.6264 115.296 57.2853 115.685 58.0003 115.685C58.7156 115.685 59.3742 115.296 59.7188 114.669L64.3062 106.329C64.4653 106.039 64.5489 105.714 64.5489 105.384V105.383C64.5489 105.28 64.5405 105.177 64.5246 105.075L62.4088 91.7397L64.3826 88.9058C64.5181 88.7096 64.618 88.4901 64.6755 88.259ZM58.0003 109.654L55.4889 105.089L57.6331 91.5743C57.7126 91.0736 57.595 90.562 57.3055 90.1463L55.662 87.7859L58.006 84.6055L60.3622 87.8145L58.7385 90.1463C58.4489 90.5618 58.3315 91.0736 58.4108 91.5743L60.5453 105.027L58.0003 109.654Z" fill="url(#paint19_linear)"/>
</g>
<defs>
<linearGradient id="paint0_linear" x1="53.3712" y1="86.8199" x2="53.3712" y2="91.6117" gradientUnits="userSpaceOnUse">
<stop stop-color="#343951"/>
<stop offset="1" stop-color="#03A9F4"/>
</linearGradient>
<linearGradient id="paint1_linear" x1="50.6229" y1="92.6947" x2="50.6229" y2="117.052" gradientUnits="userSpaceOnUse">
<stop stop-color="#343951"/>
<stop offset="1" stop-color="#03A9F4"/>
</linearGradient>
<linearGradient id="paint2_linear" x1="65.3945" y1="92.6962" x2="65.3945" y2="116.95" gradientUnits="userSpaceOnUse">
<stop stop-color="#343951"/>
<stop offset="1" stop-color="#03A9F4"/>
</linearGradient>
<linearGradient id="paint3_linear" x1="58.0003" y1="69.4451" x2="58.0003" y2="92.2908" gradientUnits="userSpaceOnUse">
<stop stop-color="#343951"/>
<stop offset="1" stop-color="#03A9F4"/>
</linearGradient>
<linearGradient id="paint4_linear" x1="55.7463" y1="82.5354" x2="55.7463" y2="93.8749" gradientUnits="userSpaceOnUse">
<stop stop-color="#343951"/>
<stop offset="1" stop-color="#03A9F4"/>
</linearGradient>
<linearGradient id="paint5_linear" x1="58.0436" y1="15.3358" x2="58.0436" y2="68.6187" gradientUnits="userSpaceOnUse">
<stop stop-color="#343951"/>
<stop offset="1" stop-color="#03A9F4"/>
</linearGradient>
<linearGradient id="paint6_linear" x1="58.0125" y1="34.2486" x2="58.0124" y2="99.9003" gradientUnits="userSpaceOnUse">
<stop stop-color="#343951"/>
<stop offset="1" stop-color="#03A9F4"/>
</linearGradient>
<linearGradient id="paint7_linear" x1="55.6508" y1="82.619" x2="55.6508" y2="94.25" gradientUnits="userSpaceOnUse">
<stop stop-color="#343951"/>
<stop offset="1" stop-color="#03A9F4"/>
</linearGradient>
<linearGradient id="paint8_linear" x1="58.2385" y1="112.77" x2="58.2385" y2="117.68" gradientUnits="userSpaceOnUse">
<stop stop-color="#343951"/>
<stop offset="1" stop-color="#03A9F4"/>
</linearGradient>
<linearGradient id="paint9_linear" x1="57.7616" y1="112.77" x2="57.7616" y2="117.681" gradientUnits="userSpaceOnUse">
<stop stop-color="#343951"/>
<stop offset="1" stop-color="#03A9F4"/>
</linearGradient>
<linearGradient id="paint10_linear" x1="57.9998" y1="113.068" x2="57.9998" y2="117.532" gradientUnits="userSpaceOnUse">
<stop stop-color="#343951"/>
<stop offset="1" stop-color="#03A9F4"/>
</linearGradient>
<linearGradient id="paint11_linear" x1="58.0407" y1="80.5455" x2="58.0407" y2="84.9668" gradientUnits="userSpaceOnUse">
<stop stop-color="#343951"/>
<stop offset="1" stop-color="#03A9F4"/>
</linearGradient>
<linearGradient id="paint12_linear" x1="58.0083" y1="80.5488" x2="58.0083" y2="84.9974" gradientUnits="userSpaceOnUse">
<stop stop-color="#343951"/>
<stop offset="1" stop-color="#03A9F4"/>
</linearGradient>
<linearGradient id="paint13_linear" x1="68.7487" y1="78.6549" x2="68.7487" y2="109.257" gradientUnits="userSpaceOnUse">
<stop stop-color="#343951"/>
<stop offset="1" stop-color="#03A9F4"/>
</linearGradient>
<linearGradient id="paint14_linear" x1="47.2519" y1="78.6552" x2="47.2519" y2="109.256" gradientUnits="userSpaceOnUse">
<stop stop-color="#343951"/>
<stop offset="1" stop-color="#03A9F4"/>
</linearGradient>
<linearGradient id="paint15_linear" x1="86.0333" y1="86.4383" x2="86.0333" y2="134.991" gradientUnits="userSpaceOnUse">
<stop stop-color="#343951"/>
<stop offset="1" stop-color="#03A9F4"/>
</linearGradient>
<linearGradient id="paint16_linear" x1="58.0217" y1="113.081" x2="58.0217" y2="117.524" gradientUnits="userSpaceOnUse">
<stop stop-color="#343951"/>
<stop offset="1" stop-color="#03A9F4"/>
</linearGradient>
<linearGradient id="paint17_linear" x1="57.9842" y1="113.052" x2="57.9842" y2="117.508" gradientUnits="userSpaceOnUse">
<stop stop-color="#343951"/>
<stop offset="1" stop-color="#03A9F4"/>
</linearGradient>
<linearGradient id="paint18_linear" x1="29.9805" y1="86.4379" x2="29.9805" y2="134.991" gradientUnits="userSpaceOnUse">
<stop stop-color="#343951"/>
<stop offset="1" stop-color="#03A9F4"/>
</linearGradient>
<linearGradient id="paint19_linear" x1="58.0113" y1="90.9416" x2="58.0113" y2="131.907" gradientUnits="userSpaceOnUse">
<stop stop-color="#343951"/>
<stop offset="1" stop-color="#03A9F4"/>
</linearGradient>
<clipPath id="clip0">
<rect width="116" height="116" fill="white"/>
</clipPath>
</defs>
</svg>
