<svg width="13" height="13" viewBox="0 0 13 13" fill="none" xmlns="http://www.w3.org/2000/svg">
<path d="M12.5532 6.93093C12.8511 6.58971 13.0001 6.18619 13.0001 5.72029C13.0001 5.29779 12.8455 4.9322 12.5374 4.62328C12.2286 4.31438 11.8631 4.16002 11.4406 4.16002H9.19005C9.21167 4.08421 9.23336 4.01921 9.25499 3.96505C9.27642 3.91089 9.30652 3.85124 9.34429 3.78624C9.38208 3.72121 9.40926 3.67244 9.42545 3.63999C9.52292 3.45592 9.59754 3.30415 9.64905 3.18507C9.70047 3.06577 9.75167 2.90333 9.80329 2.69749C9.85483 2.49176 9.88044 2.28583 9.88044 2.07998C9.88044 1.95004 9.87887 1.84431 9.87631 1.76312C9.87378 1.68187 9.85998 1.55995 9.83582 1.39742C9.81128 1.23498 9.77873 1.09954 9.7382 0.991256C9.69751 0.882941 9.63245 0.760965 9.54324 0.625643C9.45382 0.490064 9.34554 0.380525 9.21813 0.296514C9.09076 0.21256 8.92832 0.142153 8.73062 0.0853201C8.53272 0.0284305 8.30941 0 8.06009 0C7.91928 0 7.79751 0.0514823 7.69449 0.154419C7.58618 0.262734 7.49395 0.398141 7.41819 0.560585C7.34233 0.723115 7.28948 0.863958 7.25965 0.983173C7.22986 1.10233 7.19597 1.26759 7.1582 1.47879C7.10928 1.7064 7.07288 1.87015 7.04835 1.97036C7.02402 2.07056 6.9765 2.2019 6.90615 2.36437C6.83566 2.52696 6.75179 2.65688 6.65427 2.75443C6.47555 2.93316 6.20204 3.25819 5.83362 3.72941C5.56814 4.07604 5.29463 4.40375 5.01298 4.71253C4.73127 5.02136 4.52547 5.18113 4.3955 5.19198C4.26018 5.20279 4.1437 5.25831 4.04618 5.35857C3.94865 5.45878 3.8999 5.57663 3.8999 5.71201V10.9203C3.8999 11.0611 3.95133 11.1816 4.05426 11.2818C4.15713 11.3821 4.27902 11.4349 4.41986 11.4403C4.60942 11.4458 5.03734 11.5648 5.70363 11.798C6.12065 11.9386 6.44695 12.0457 6.68258 12.1188C6.91816 12.1918 7.24745 12.2704 7.66962 12.3545C8.09219 12.4384 8.48212 12.4805 8.83953 12.4805H8.97769H9.59523H9.88767C10.6083 12.4697 11.1416 12.2583 11.4883 11.8467C11.8024 11.4729 11.935 10.9827 11.8865 10.376C12.0977 10.1756 12.244 9.92112 12.3252 9.61228C12.4171 9.28205 12.4171 8.96513 12.3252 8.66184C12.5743 8.3314 12.6908 7.96035 12.6744 7.54867C12.6751 7.37515 12.6346 7.16936 12.5532 6.93093Z" fill="#757575"/>
<path d="M2.86001 5.1875H0.520094C0.379171 5.1875 0.257287 5.23898 0.154383 5.34192C0.0514801 5.4448 0 5.56668 0 5.70753V10.9078C0 11.0485 0.0514801 11.1704 0.154412 11.2735C0.257401 11.3762 0.379285 11.4277 0.520123 11.4277H2.86001C3.00082 11.4277 3.12264 11.3762 3.2256 11.2735C3.32851 11.1704 3.37996 11.0485 3.37996 10.9078V5.70753C3.37996 5.56668 3.32848 5.44482 3.2256 5.34192C3.12267 5.23895 3.00084 5.1875 2.86001 5.1875ZM1.9256 10.2373C1.82269 10.3375 1.70084 10.3876 1.56 10.3876C1.41373 10.3876 1.29047 10.3375 1.19033 10.2373C1.09013 10.1371 1.04005 10.0139 1.04005 9.86765C1.04005 9.72684 1.0901 9.60492 1.19033 9.50205C1.2905 9.39911 1.41373 9.34757 1.56 9.34757C1.70084 9.34757 1.82269 9.39911 1.9256 9.50205C2.02853 9.6049 2.08001 9.72681 2.08001 9.86765C2.08001 10.0139 2.02864 10.1371 1.9256 10.2373Z" fill="#757575"/>
</svg>
