<svg width="9" height="5" viewBox="0 0 9 5" fill="none" xmlns="http://www.w3.org/2000/svg">
    <path d="M0 0.712142C0.000623709 0.571138 0.04515 0.433454 0.127979 0.316401C0.210809 0.199348 0.328244 0.108149 0.465525 0.0542688C0.602806 0.000388626 0.753804 -0.0137684 0.899537 0.0135784C1.04527 0.0409252 1.17923 0.108555 1.28459 0.207966L4.52055 3.27594L7.75651 0.207966C7.90064 0.0908061 8.08604 0.0295851 8.27565 0.0365371C8.46527 0.0434891 8.64515 0.118102 8.77933 0.245466C8.91351 0.372829 8.99211 0.543562 8.99944 0.723546C9.00676 0.903531 8.94226 1.07951 8.81883 1.21632L5.05171 4.79204C4.91055 4.92524 4.71959 5 4.52055 5C4.3215 5 4.13055 4.92524 3.98938 4.79204L0.22226 1.21632C0.080772 1.08282 0.000841119 0.901504 0 0.712142Z" fill="white"/>
</svg>
