<svg width="28" height="32" viewBox="0 0 28 32" fill="none" xmlns="http://www.w3.org/2000/svg">
<path d="M1.99998 0H18.9929L27.9999 8.97203V30C27.9999 31.105 27.104 32 26 32H1.99998C0.895951 32 0 31.105 0 30V1.99998C0 0.89502 0.896054 0 1.99998 0Z" fill="#E2574C"/>
<path d="M27.971 9.00002H21C19.896 9.00002 19 8.10407 19 7.00004V0.0200195L27.971 9.00002Z" fill="#B53629"/>
<path d="M20.498 15.1632C20.833 15.1632 20.997 14.8712 20.997 14.5882C20.997 14.2952 20.826 14.0122 20.498 14.0122H18.59C18.217 14.0122 18.009 14.3212 18.009 14.6622V19.3512C18.009 19.7692 18.247 20.0012 18.569 20.0012C18.889 20.0012 19.1281 19.7692 19.1281 19.3512V18.0642H20.2821C20.6401 18.0642 20.8191 17.7712 20.8191 17.4802C20.8191 17.1953 20.6401 16.9122 20.2821 16.9122H19.1281V15.1632H20.498ZM14.049 14.0122H12.653C12.274 14.0122 12.0049 14.2722 12.0049 14.6582V19.3552C12.0049 19.8342 12.3919 19.9842 12.6689 19.9842H14.134C15.8679 19.9842 17.0129 18.8432 17.0129 17.0822C17.012 15.2202 15.934 14.0122 14.049 14.0122ZM14.1161 18.8263H13.265V15.1702H14.032C15.1931 15.1702 15.698 15.9493 15.698 17.0242C15.698 18.0303 15.202 18.8263 14.1161 18.8263ZM9.00202 14.0122H7.61904C7.22802 14.0122 7.01001 14.2702 7.01001 14.6622V19.3512C7.01001 19.7692 7.25999 20.0012 7.59596 20.0012C7.93193 20.0012 8.18192 19.7692 8.18192 19.3512V17.9822H9.04889C10.1189 17.9822 11.0019 17.2241 11.0019 16.0052C11.002 14.8122 10.15 14.0122 9.00202 14.0122ZM8.97905 16.8823H8.18202V15.1132H8.97905C9.47105 15.1132 9.78405 15.4972 9.78405 15.9982C9.78302 16.4983 9.47105 16.8823 8.97905 16.8823Z" fill="white"/>
</svg>
