<svg width="11" height="9" viewBox="0 0 11 9" fill="none" xmlns="http://www.w3.org/2000/svg">
<path d="M5.15616 2.06261H4.12489V0.343917C4.12489 0.201608 4.03758 0.0744249 3.90558 0.0228639C3.77357 -0.0280095 3.62301 0.00773944 3.52676 0.112924L0.0892045 3.89406C-0.0297348 4.02468 -0.0297348 4.22474 0.0892045 4.35604L3.52676 8.13718C3.59345 8.21005 3.68626 8.24992 3.78114 8.24992C3.82308 8.24992 3.86501 8.24236 3.90558 8.22724C4.03758 8.17568 4.12489 8.04849 4.12489 7.90619V6.18749H5.08122C7.04338 6.18749 8.94366 6.89009 10.4328 8.16743C10.5339 8.25474 10.6789 8.27467 10.7999 8.2183C10.9223 8.16261 11 8.04024 11 7.90619C11 4.68397 8.37852 2.06261 5.15616 2.06261ZM5.08122 5.50001H3.78114C3.59138 5.50001 3.43738 5.654 3.43738 5.84375V7.01728L0.808341 4.12505L3.43738 1.23283V2.40635C3.43738 2.5961 3.59138 2.75009 3.78114 2.75009H5.15616C6.53324 2.75009 7.82851 3.28633 8.80203 4.2598C9.59748 5.05521 10.1014 6.06512 10.2589 7.15821C8.75321 6.08437 6.943 5.50001 5.08122 5.50001Z" fill="#757575"/>
</svg>
