<svg width="14" height="8" viewBox="0 0 14 8" fill="none" xmlns="http://www.w3.org/2000/svg">
<path d="M1.35875e-08 1.13943C0.000970851 0.91382 0.0702324 0.693527 0.199079 0.506242C0.327924 0.318957 0.510601 0.173039 0.724149 0.0868302C0.937697 0.000621957 1.17258 -0.0220292 1.39928 0.0217256C1.62598 0.0654805 1.83436 0.173688 1.99825 0.332745L7.03196 5.2415L12.0657 0.332745C12.2899 0.14529 12.5783 0.0473361 12.8732 0.0584594C13.1682 0.0695826 13.448 0.188964 13.6567 0.392745C13.8655 0.596526 13.9877 0.869699 13.9991 1.15767C14.0105 1.44565 13.9102 1.72722 13.7182 1.94611L7.85822 7.66727C7.63863 7.88038 7.34159 8 7.03196 8C6.72234 8 6.42529 7.88038 6.20571 7.66727L0.345738 1.94611C0.125645 1.73251 0.00130846 1.44241 1.35875e-08 1.13943Z" fill="#343951"/>
</svg>
