<svg id="vk" width="32" height="32" viewBox="0 0 32 32" fill="none" xmlns="http://www.w3.org/2000/svg">
<path class="circle" d="M0 16C0 7.16344 7.16344 0 16 0C24.8366 0 32 7.16344 32 16C32 24.8366 24.8366 32 16 32C7.16344 32 0 24.8366 0 16Z" />
<path d="M16.8369 21.2507C16.8369 21.2507 17.1449 21.2171 17.3026 21.0507C17.4471 20.8983 17.442 20.6107 17.442 20.6107C17.442 20.6107 17.4228 19.2678 18.0581 19.0695C18.6841 18.8745 19.488 20.3682 20.3411 20.9426C20.9855 21.3768 21.4746 21.2818 21.4746 21.2818L23.7543 21.2507C23.7543 21.2507 24.9463 21.1786 24.3812 20.2584C24.3344 20.183 24.0514 19.5775 22.6867 18.3337C21.2568 17.0317 21.4488 17.2423 23.17 14.9899C24.2184 13.6182 24.6374 12.7808 24.5064 12.4228C24.382 12.0803 23.6107 12.1712 23.6107 12.1712L21.0447 12.1868C21.0447 12.1868 20.8544 12.1614 20.7134 12.2442C20.5756 12.3253 20.4863 12.5145 20.4863 12.5145C20.4863 12.5145 20.0806 13.5756 19.5389 14.4786C18.3961 16.3828 17.9395 16.4836 17.7526 16.3656C17.3177 16.0895 17.4262 15.2578 17.4262 14.667C17.4262 12.821 17.7117 12.0516 16.8711 11.8525C16.5923 11.7861 16.3869 11.7427 15.6732 11.7353C14.7575 11.7263 13.9829 11.7386 13.5438 11.9492C13.2517 12.0893 13.0263 12.4023 13.164 12.4203C13.3335 12.4424 13.7175 12.5219 13.9211 12.794C14.1841 13.1455 14.1749 13.9337 14.1749 13.9337C14.1749 13.9337 14.326 16.1067 13.8218 16.3762C13.4762 16.5614 13.0021 16.1837 11.9829 14.4556C11.4612 13.5707 11.0672 12.5924 11.0672 12.5924C11.0672 12.5924 10.9912 12.4097 10.8552 12.3113C10.6907 12.1925 10.4612 12.1557 10.4612 12.1557L8.02293 12.1712C8.02293 12.1712 7.65649 12.1811 7.52209 12.3376C7.40273 12.476 7.51291 12.7636 7.51291 12.7636C7.51291 12.7636 9.42194 17.1481 11.5839 19.3579C13.5664 21.3834 15.8168 21.2507 15.8168 21.2507H16.8369Z" fill="white"/>
</svg>
