<svg width="26" height="24" viewBox="0 0 26 24" fill="none" xmlns="http://www.w3.org/2000/svg">
<path d="M12.9996 16.7021C12.2727 16.7021 11.6635 17.3114 11.6635 18.0383C11.6635 18.7652 12.2727 19.3745 12.9996 19.3745C13.6998 19.3745 14.3358 18.7652 14.3037 18.0704C14.3358 17.3061 13.7318 16.7021 12.9996 16.7021Z" fill="#343951"/>
<path d="M25.3673 21.4376C26.2064 19.9892 26.2118 18.2628 25.378 16.8198L17.0082 2.32494C16.1798 0.865842 14.6833 0 13.005 0C11.3268 0 9.83026 0.871186 9.00184 2.3196L0.621347 16.8305C-0.212426 18.2896 -0.207082 20.0266 0.637381 21.475C1.47115 22.9074 2.96233 23.7679 4.62987 23.7679H21.3481C23.021 23.7679 24.5228 22.8967 25.3673 21.4376ZM23.5501 20.39C23.0851 21.1917 22.262 21.6674 21.3427 21.6674H4.62453C3.71593 21.6674 2.89819 21.2024 2.44389 20.4168C1.98425 19.6204 1.9789 18.669 2.43854 17.8673L10.819 3.36182C11.2733 2.56546 12.0857 2.09512 13.005 2.09512C13.919 2.09512 14.7367 2.5708 15.191 3.36716L23.5661 17.8727C24.0151 18.653 24.0098 19.5937 23.5501 20.39Z" fill="#343951"/>
<path d="M12.668 7.32239C12.032 7.50411 11.6365 8.08134 11.6365 8.78149C11.6685 9.20372 11.6953 9.6313 11.7273 10.0535C11.8182 11.6623 11.9091 13.239 11.9999 14.8477C12.032 15.3929 12.4542 15.7884 12.9994 15.7884C13.5445 15.7884 13.9721 15.3662 13.9988 14.8157C13.9988 14.4843 13.9988 14.1796 14.0309 13.8429C14.0897 12.8114 14.1538 11.7799 14.2126 10.7483C14.2447 10.0803 14.3035 9.41217 14.3355 8.74408C14.3355 8.50357 14.3035 8.28978 14.2126 8.07599C13.94 7.47739 13.304 7.17274 12.668 7.32239Z" fill="#343951"/>
</svg>
