<svg width="16" height="27" viewBox="0 0 16 27" fill="none" xmlns="http://www.w3.org/2000/svg">
<path d="M2.83613 26.6998C2.41312 26.698 2.00007 26.5674 1.64891 26.3244C1.29775 26.0814 1.02415 25.737 0.862513 25.3343C0.700873 24.9316 0.658402 24.4886 0.740442 24.0612C0.822483 23.6337 1.02537 23.2407 1.3236 22.9317L10.5275 13.4395L1.3236 3.94739C0.972125 3.5246 0.788462 2.98077 0.809318 2.42455C0.830174 1.86834 1.05401 1.34071 1.4361 0.947113C1.81819 0.553516 2.33039 0.322937 2.87035 0.301453C3.4103 0.279969 3.93824 0.469162 4.34866 0.831226L15.0758 11.8815C15.4754 12.2955 15.6997 12.8557 15.6997 13.4395C15.6997 14.0234 15.4754 14.5835 15.0758 14.9976L4.34866 26.0478C3.94817 26.4629 3.40422 26.6973 2.83613 26.6998Z" fill="#E3E2E9"/>
</svg>
