<svg width="37" height="37" viewBox="0 0 37 37" fill="none" xmlns="http://www.w3.org/2000/svg">
<path d="M36.6718 35.1131L27.6803 26.1215C30.0922 23.3486 31.5526 19.7306 31.5526 15.7763C31.5526 7.07184 24.4725 0 15.7763 0C7.07184 0 0 7.08004 0 15.7763C0 24.4725 7.08004 31.5526 15.7763 31.5526C19.7306 31.5526 23.3486 30.0922 26.1215 27.6803L35.1131 36.6718C35.3264 36.8851 35.6135 37 35.8925 37C36.1714 37 36.4585 36.8933 36.6718 36.6718C37.0984 36.2452 37.0984 35.5397 36.6718 35.1131ZM2.20687 15.7763C2.20687 8.29424 8.29424 2.21508 15.7681 2.21508C23.2501 2.21508 29.3293 8.30244 29.3293 15.7763C29.3293 23.2501 23.2501 29.3457 15.7681 29.3457C8.29424 29.3457 2.20687 23.2583 2.20687 15.7763Z" fill="white"/>
</svg>
